<svg width="20" height="20" viewBox="0 0 20 20" fill="none" xmlns="http://www.w3.org/2000/svg">
<path d="M7.085 4H5.5C5.36739 4 5.24021 4.05268 5.14645 4.14645C5.05268 4.24022 5 4.36739 5 4.5V16.5C5 16.6326 5.05268 16.7598 5.14645 16.8536C5.24021 16.9473 5.36739 17 5.5 17H14.5C14.6326 17 14.7598 16.9473 14.8536 16.8536C14.9473 16.7598 15 16.6326 15 16.5V4.5C15 4.36739 14.9473 4.24022 14.8536 4.14645C14.7598 4.05268 14.6326 4 14.5 4H12.915C12.8116 4.29258 12.6199 4.54587 12.3665 4.72497C12.1131 4.90407 11.8103 5.00016 11.5 5H8.5C8.18967 5.00016 7.88694 4.90407 7.63351 4.72497C7.38008 4.54587 7.18844 4.29258 7.085 4ZM12.915 3H14.5C14.8978 3 15.2794 3.15804 15.5607 3.43934C15.842 3.72064 16 4.10218 16 4.5V16.5C16 16.8978 15.842 17.2794 15.5607 17.5607C15.2794 17.842 14.8978 18 14.5 18H5.5C5.10218 18 4.72064 17.842 4.43934 17.5607C4.15804 17.2794 4 16.8978 4 16.5V4.5C4 4.10218 4.15804 3.72064 4.43934 3.43934C4.72064 3.15804 5.10218 3 5.5 3H7.085C7.18844 2.70742 7.38008 2.45413 7.63351 2.27503C7.88694 2.09593 8.18967 1.99984 8.5 2H11.5C11.8103 1.99984 12.1131 2.09593 12.3665 2.27503C12.6199 2.45413 12.8116 2.70742 12.915 3ZM8 3.5C8 3.63261 8.05268 3.75979 8.14645 3.85355C8.24021 3.94732 8.36739 4 8.5 4H11.5C11.6326 4 11.7598 3.94732 11.8536 3.85355C11.9473 3.75979 12 3.63261 12 3.5C12 3.36739 11.9473 3.24022 11.8536 3.14645C11.7598 3.05268 11.6326 3 11.5 3H8.5C8.36739 3 8.24021 3.05268 8.14645 3.14645C8.05268 3.24022 8 3.36739 8 3.5ZM9 8C9 7.73478 9.10536 7.48043 9.29289 7.29289C9.48043 7.10536 9.73478 7 10 7C10.2652 7 10.5196 7.10536 10.7071 7.29289C10.8946 7.48043 11 7.73478 11 8C11 8.26522 10.8946 8.51957 10.7071 8.70711C10.5196 8.89464 10.2652 9 10 9C9.73478 9 9.48043 8.89464 9.29289 8.70711C9.10536 8.51957 9 8.26522 9 8ZM10 6C9.46957 6 8.96086 6.21071 8.58579 6.58579C8.21071 6.96086 8 7.46957 8 8C8 8.53043 8.21071 9.03914 8.58579 9.41421C8.96086 9.78929 9.46957 10 10 10C10.5304 10 11.0391 9.78929 11.4142 9.41421C11.7893 9.03914 12 8.53043 12 8C12 7.46957 11.7893 6.96086 11.4142 6.58579C11.0391 6.21071 10.5304 6 10 6ZM7.526 12.196C7.52377 12.1729 7.52695 12.1495 7.53528 12.1278C7.54361 12.1062 7.55686 12.0867 7.574 12.071C7.62099 12.025 7.68426 11.9995 7.75 12H12.25C12.3157 11.9996 12.3789 12.0251 12.426 12.071C12.443 12.0868 12.456 12.1063 12.4642 12.128C12.4723 12.1497 12.4754 12.173 12.473 12.196C12.425 12.651 12.294 13.082 11.975 13.402C11.663 13.715 11.093 14 10 14C8.907 14 8.337 13.715 8.025 13.402C7.705 13.082 7.575 12.651 7.526 12.196ZM7.75 11C7.086 11 6.452 11.55 6.532 12.302C6.592 12.862 6.767 13.556 7.316 14.108C7.873 14.666 8.734 15 10 15C11.266 15 12.127 14.666 12.684 14.108C13.234 13.556 13.409 12.861 13.468 12.302C13.548 11.55 12.915 11 12.25 11H7.75Z" fill="white"/>
</svg>
